<?xml version="1.0" encoding="UTF-8" standalone="no"?>
<!-- Created with Inkscape (http://www.inkscape.org/) -->

<svg
   width="218.92297mm"
   height="40.444084mm"
   viewBox="0 0 218.92297 40.444083"
   version="1.1"
   id="svg1"
   xml:space="preserve"
   inkscape:version="1.3 (0e150ed6c4, 2023-07-21)"
   sodipodi:docname="4-mmi-structure.svg"
   xmlns:inkscape="http://www.inkscape.org/namespaces/inkscape"
   xmlns:sodipodi="http://sodipodi.sourceforge.net/DTD/sodipodi-0.dtd"
   xmlns="http://www.w3.org/2000/svg"
   xmlns:svg="http://www.w3.org/2000/svg"><sodipodi:namedview
     id="namedview1"
     pagecolor="#ffffff"
     bordercolor="#000000"
     borderopacity="0.25"
     inkscape:showpageshadow="2"
     inkscape:pageopacity="0.0"
     inkscape:pagecheckerboard="0"
     inkscape:deskcolor="#d1d1d1"
     inkscape:document-units="mm"
     inkscape:zoom="1"
     inkscape:cx="445.5"
     inkscape:cy="135"
     inkscape:window-width="1920"
     inkscape:window-height="991"
     inkscape:window-x="-9"
     inkscape:window-y="-9"
     inkscape:window-maximized="1"
     inkscape:current-layer="layer1" /><defs
     id="defs1" /><g
     inkscape:label="Layer 1"
     inkscape:groupmode="layer"
     id="layer1"
     transform="translate(13.063163,-134.22007)"><path
       style="fill:#000000"
       d="m 8.4587339,167.36952 c 0,-0.32126 0.423176,-0.39687 2.2210881,-0.39687 2.703052,0 5.099039,-0.67866 7.063693,-2.00078 1.679391,-1.13014 2.356535,-1.80205 4.28159,-4.24848 2.462948,-3.12999 4.440116,-4.56295 7.582171,-5.4952 3.605812,-1.06984 8.003838,-0.027 11.080819,2.62743 0.627451,0.54128 1.80406,1.83178 2.614688,2.86777 2.655419,3.39367 4.941154,5.1066 7.846521,5.88018 1.825571,0.48608 9.343943,0.49242 11.152133,0.009 2.9449,-0.78665 5.13074,-2.33396 7.46913,-5.28722 2.71833,-3.43313 5.09778,-5.24986 7.99088,-6.10111 4.58016,-1.34764 10.1037,0.67854 13.27281,4.86883 3.70724,4.9018 7.13963,6.87917 11.941153,6.87917 1.65138,0 2.05624,0.0781 2.05624,0.39687 0,0.31089 -0.36208,0.39688 -1.6712,0.39688 -4.984243,0 -8.545283,-1.86101 -11.981483,-6.26156 -3.0227,-3.87101 -6.01971,-5.64144 -9.89523,-5.84542 -1.8255,-0.0961 -2.56713,-0.0108 -3.93874,0.45304 -2.3733,0.80254 -4.21008,2.05843 -5.87467,4.0168 -5.53188,6.50818 -7.71791,7.63884 -14.76281,7.6356 -7.423624,-0.003 -8.951406,-0.77446 -15.038528,-7.58973 -2.867765,-3.21081 -5.617757,-4.57957 -9.200881,-4.57957 -3.583124,0 -6.333115,1.36876 -9.200881,4.57957 -4.81934,5.39584 -6.566348,6.65979 -10.096149,7.30451 -2.392185,0.43694 -4.9123441,0.38044 -4.9123441,-0.11012 z m 0,-9.525 c 0,-0.33075 0.529478,-0.39688 3.1778011,-0.39688 3.742183,0 6.814377,-0.59714 10.126875,-1.96835 6.484914,-2.68444 15.324482,-2.68444 21.809396,0 3.979967,1.64751 6.12842,1.96835 13.180741,1.96835 7.08042,0 8.85218,-0.24899 12.69164,-1.78362 3.73509,-1.49291 5.88863,-1.93114 10.31875,-2.09979 3.38955,-0.12903 4.40262,-0.068 6.94165,0.41825 1.64736,0.31548 3.94779,0.98194 5.15938,1.49472 3.16513,1.33961 5.16041,1.75528 9.308993,1.93934 2.80619,0.1245 3.71202,0.25124 3.80511,0.53238 0.1021,0.30834 -0.48157,0.34501 -3.55064,0.22311 -4.025353,-0.15989 -6.434803,-0.59184 -9.242753,-1.65698 -5.19067,-1.96898 -5.68985,-2.06402 -10.96653,-2.08793 -5.47576,-0.0248 -6.10055,0.0813 -10.84791,1.84197 -4.15944,1.54265 -7.1278,1.9723 -13.62604,1.9723 -6.375589,0 -9.499478,-0.44019 -13.222066,-1.86315 -4.996279,-1.90983 -5.323771,-1.96924 -10.855023,-1.96924 -5.531251,0 -5.858743,0.0594 -10.855022,1.96924 -3.149727,1.20398 -6.926097,1.86315 -10.673946,1.86315 -2.2061941,0 -2.6804061,-0.0702 -2.6804061,-0.39687 z m 19.2152221,-5.44209 c -1.000534,-0.13824 -2.846003,-0.61646 -4.101042,-1.06271 -1.255039,-0.44625 -3.100599,-1.09981 -4.101246,-1.45236 -2.468948,-0.86987 -4.508861,-1.1666 -8.036372,-1.16897 -2.5785111,-0.002 -2.9765621,-0.0599 -2.9765621,-0.43482 0,-0.38784 0.405621,-0.41744 3.9026041,-0.2848 4.367156,0.16564 6.761923,0.65744 10.431299,2.14221 3.062036,1.23901 6.012524,1.76691 9.875471,1.76691 3.915199,0 6.739364,-0.51622 10.11574,-1.84902 4.612435,-1.82072 5.888887,-2.00393 13.961349,-2.00393 8.05316,0 9.28001,0.1742 14.02291,1.99114 3.62674,1.38935 6.32033,1.87947 10.24442,1.86405 3.84144,-0.0151 7.09719,-0.61886 9.99674,-1.85385 3.15323,-1.34305 6.00684,-1.9186 10.252073,-2.06779 3.22531,-0.11334 3.77031,-0.0754 3.77031,0.26229 0,0.32642 -0.69864,0.41974 -4.03489,0.53896 -4.265753,0.15243 -6.184953,0.54991 -9.239633,1.91361 -2.53189,1.13031 -5.38945,1.72643 -9.10136,1.89865 -5.41369,0.25119 -9.22233,-0.39943 -14.00433,-2.39232 -3.15655,-1.31549 -5.26847,-1.5495 -12.892554,-1.42858 -7.563621,0.11997 -8.233272,0.23341 -12.85513,2.17768 -0.918833,0.38652 -2.466646,0.87994 -3.439584,1.09649 -2.160085,0.48077 -9.301374,0.69105 -11.790213,0.34716 z m 3.274361,-1.32711 c -2.840905,-0.35802 -6.042767,-2.29638 -8.202084,-4.96541 -4.447192,-5.49697 -7.423789,-7.13582 -13.0307281,-7.17444 -0.691224,-0.005 -1.256771,-0.12772 -1.256771,-0.27324 0,-0.15751 1.000429,-0.26459 2.4721211,-0.26459 4.561933,0 7.659918,1.6273 10.891135,5.72084 3.797831,4.81137 7.950791,6.83553 12.56591,6.12466 3.360083,-0.51756 6.414186,-2.62626 9.377726,-6.47483 1.510627,-1.96176 3.115011,-3.25861 5.43894,-4.39638 l 2.000912,-0.66009 0.947709,-0.21759 2.317513,-0.2171 2.279947,-0.0531 2.84644,0.0913 2.80621,0.4709 2.28135,0.77719 c 1.68518,0.57409 2.50121,1.47102 3.82274,2.88112 4.71416,5.03008 5.80452,6.0219 7.47162,6.79638 2.39267,1.11155 4.55446,1.39919 6.99969,0.93134 3.40911,-0.65227 5.29547,-2.03368 9.74015,-7.13288 2.84697,-3.2662 5.75386,-4.64177 9.809193,-4.64177 1.49268,0 2.50361,0.10684 2.50361,0.26459 0,0.14552 -0.56554,0.26694 -1.25677,0.26982 -5.535973,0.0231 -8.735203,1.74677 -12.625803,6.80254 -5.67483,7.37437 -14.71728,7.26096 -20.69185,-0.2595 -4.1143,-5.17884 -6.95686,-6.53284 -13.71203,-6.53145 -5.870616,10e-4 -8.32858,0.91563 -11.509381,4.28181 -5.114677,5.41277 -5.666157,5.91218 -7.465543,6.76062 -2.271656,1.07112 -4.342339,1.40174 -6.821956,1.08925 z"
       id="path1"
       sodipodi:nodetypes="cssssssscsssssssscscssssccsssssssssssssssssssssssscssssssssssssssssssssscssssssccccccsssssssssscssss" /><rect
       style="fill:#ff0000;stroke:#ff0000;stroke-width:0.630637"
       id="rect1"
       width="12.473536"
       height="3.7514517"
       x="50.61549"
       y="136.89661" /><rect
       style="fill:#ff0000;stroke:#ff0000;stroke-width:0.630637"
       id="rect1-3"
       width="12.473536"
       height="3.7514517"
       x="50.586151"
       y="146.89449" /><rect
       style="fill:#ff0000;stroke:#ff0000;stroke-width:0.630637"
       id="rect1-1"
       width="12.473536"
       height="3.7514517"
       x="50.453857"
       y="156.02261" /><path
       style="fill:#000000"
       d="m 102.65833,167.31323 c 0,-0.32126 0.42318,-0.39687 2.22109,-0.39687 2.70305,0 5.09904,-0.67866 7.06369,-2.00078 1.6794,-1.13014 2.35654,-1.80205 4.28159,-4.24848 2.46295,-3.12999 4.44012,-4.56295 7.58218,-5.4952 3.60581,-1.06984 8.00383,-0.027 11.08081,2.62743 0.62746,0.54128 1.80406,1.83178 2.61469,2.86777 2.65542,3.39367 4.94116,5.1066 7.84653,5.88018 1.82557,0.48608 9.34394,0.49242 11.15213,0.009 2.9449,-0.78665 5.13074,-2.33396 7.46913,-5.28722 2.71833,-3.43313 5.09778,-5.24986 7.99088,-6.10111 4.58016,-1.34764 10.1037,0.67854 13.27281,4.86883 3.70724,4.9018 7.13963,6.87917 11.94115,6.87917 1.65138,0 2.05624,0.0781 2.05624,0.39687 0,0.31089 -0.36208,0.39688 -1.6712,0.39688 -4.98424,0 -8.54528,-1.86101 -11.98148,-6.26156 -3.0227,-3.87101 -6.01971,-5.64144 -9.89523,-5.84542 -1.8255,-0.0961 -2.56713,-0.0108 -3.93874,0.45304 -2.3733,0.80254 -4.21008,2.05843 -5.87467,4.0168 -5.53188,6.50818 -7.71791,7.63884 -14.76281,7.6356 -7.42362,-0.003 -8.95141,-0.77446 -15.03853,-7.58973 -2.86777,-3.21081 -5.61776,-4.57957 -9.20088,-4.57957 -3.58313,0 -6.33312,1.36876 -9.20088,4.57957 -4.81934,5.39584 -6.56635,6.65979 -10.09615,7.30451 -2.39219,0.43694 -4.91235,0.38044 -4.91235,-0.11012 z m 0,-9.525 c 0,-0.33075 0.52948,-0.39688 3.1778,-0.39688 3.74219,0 6.81438,-0.59714 10.12688,-1.96835 6.48491,-2.68444 15.32448,-2.68444 21.8094,0 3.97996,1.64751 6.12842,1.96835 13.18074,1.96835 7.08042,0 8.85218,-0.24899 12.69164,-1.78362 3.73509,-1.49291 5.88863,-1.93114 10.31875,-2.09979 3.38955,-0.12903 4.40262,-0.068 6.94165,0.41825 1.64736,0.31548 3.94779,0.98194 5.15938,1.49472 3.16513,1.33961 5.16041,1.75528 9.30899,1.93934 2.80619,0.1245 3.71202,0.25124 3.80511,0.53238 0.1021,0.30834 -0.48157,0.34501 -3.55064,0.22311 -4.02535,-0.15989 -6.4348,-0.59184 -9.24275,-1.65698 -5.19067,-1.96898 -5.68985,-2.06402 -10.96653,-2.08793 -5.47576,-0.0248 -6.10055,0.0813 -10.84791,1.84197 -4.15944,1.54265 -7.1278,1.9723 -13.62604,1.9723 -6.37559,0 -9.49948,-0.44019 -13.22207,-1.86315 -4.99628,-1.90983 -5.32377,-1.96924 -10.85502,-1.96924 -5.53125,0 -5.85875,0.0594 -10.85502,1.96924 -3.14973,1.20398 -6.9261,1.86315 -10.67395,1.86315 -2.20619,0 -2.68041,-0.0702 -2.68041,-0.39687 z m 19.21523,-5.44209 c -1.00054,-0.13824 -2.84601,-0.61646 -4.10105,-1.06271 -1.25504,-0.44625 -3.1006,-1.09981 -4.10124,-1.45236 -2.46895,-0.86987 -4.50886,-1.1666 -8.03637,-1.16897 -2.57852,-0.002 -2.97657,-0.0599 -2.97657,-0.43482 0,-0.38784 0.40562,-0.41744 3.90261,-0.2848 4.36715,0.16564 6.76192,0.65744 10.4313,2.14221 3.06203,1.23901 6.01252,1.76691 9.87547,1.76691 3.9152,0 6.73936,-0.51622 10.11574,-1.84902 4.61243,-1.82072 5.88889,-2.00393 13.96135,-2.00393 8.05316,0 9.28001,0.1742 14.02291,1.99114 3.62674,1.38935 6.32033,1.87947 10.24442,1.86405 3.84144,-0.0151 7.09719,-0.61886 9.99674,-1.85385 3.15323,-1.34305 6.00684,-1.9186 10.25207,-2.06779 3.22531,-0.11334 3.77031,-0.0754 3.77031,0.26229 0,0.32642 -0.69864,0.41974 -4.03489,0.53896 -4.26575,0.15243 -6.18495,0.54991 -9.23963,1.91361 -2.53189,1.13031 -5.38945,1.72643 -9.10136,1.89865 -5.41369,0.25119 -9.22233,-0.39943 -14.00433,-2.39232 -3.15655,-1.31549 -5.26847,-1.5495 -12.89255,-1.42858 -7.56363,0.11997 -8.23328,0.23341 -12.85514,2.17768 -0.91883,0.38652 -2.46664,0.87994 -3.43958,1.09649 -2.16009,0.48077 -9.30138,0.69105 -11.79021,0.34716 z m 3.27436,-1.32711 c -2.84091,-0.35802 -6.04277,-2.29638 -8.20209,-4.96541 -4.44719,-5.49697 -7.42379,-7.13582 -13.03073,-7.17444 -0.69122,-0.005 -1.25677,-0.12772 -1.25677,-0.27324 0,-0.15751 1.00043,-0.26459 2.47212,-0.26459 4.56194,0 7.65992,1.6273 10.89114,5.72084 3.79783,4.81137 7.95079,6.83553 12.56591,6.12466 3.36008,-0.51756 6.41419,-2.62626 9.37773,-6.47483 1.51062,-1.96176 3.11501,-3.25861 5.43894,-4.39638 l 2.00091,-0.66009 0.94771,-0.21759 2.31751,-0.2171 2.27995,-0.0531 2.84644,0.0913 2.80621,0.4709 2.28135,0.77719 c 1.68518,0.57409 2.50121,1.47102 3.82274,2.88112 4.71416,5.03008 5.80452,6.0219 7.47162,6.79638 2.39267,1.11155 4.55446,1.39919 6.99969,0.93134 3.40911,-0.65227 5.29547,-2.03368 9.74015,-7.13288 2.84697,-3.2662 5.75386,-4.64177 9.80919,-4.64177 1.49268,0 2.50361,0.10684 2.50361,0.26459 0,0.14552 -0.56554,0.26694 -1.25677,0.26982 -5.53597,0.0231 -8.7352,1.74677 -12.6258,6.80254 -5.67483,7.37437 -14.71728,7.26096 -20.69185,-0.2595 -4.1143,-5.17884 -6.95686,-6.53284 -13.71203,-6.53145 -5.87062,0.001 -8.32858,0.91563 -11.50938,4.28181 -5.11468,5.41277 -5.66616,5.91218 -7.46555,6.76062 -2.27165,1.07112 -4.34234,1.40174 -6.82195,1.08925 z"
       id="path1-9"
       sodipodi:nodetypes="cssssssscsssssssscscssssccsssssssssssssssssssssssscssssssssssssssssssssscssssssccccccsssssssssscssss" /><rect
       style="fill:#ff0000;stroke:#ff0000;stroke-width:0.630637"
       id="rect1-5"
       width="12.473536"
       height="3.7514517"
       x="144.81509"
       y="136.84032" /><rect
       style="fill:#ff0000;stroke:#ff0000;stroke-width:0.630637"
       id="rect1-3-9"
       width="12.473536"
       height="3.7514517"
       x="144.78577"
       y="146.8382" /><rect
       style="fill:#ff0000;stroke:#ff0000;stroke-width:0.630637"
       id="rect1-1-8"
       width="12.473536"
       height="3.7514517"
       x="144.65346"
       y="155.96632" /><rect
       style="fill:#ff0000;stroke:#ff0000;stroke-width:0.630637"
       id="rect1-5-4"
       width="12.473536"
       height="3.7514517"
       x="98.140694"
       y="137.03748" /><rect
       style="fill:#ff0000;stroke:#ff0000;stroke-width:0.630637"
       id="rect1-3-9-1"
       width="12.473536"
       height="3.7514517"
       x="98.111366"
       y="147.03535" /><rect
       style="fill:#ff0000;stroke:#ff0000;stroke-width:0.630637"
       id="rect1-1-8-3"
       width="12.473536"
       height="3.7514517"
       x="97.979057"
       y="156.16348" /></g></svg>
