<?xml version="1.0" encoding="UTF-8" standalone="no"?>
<!-- Created with Inkscape (http://www.inkscape.org/) -->

<svg
   width="146.21295mm"
   height="92.935539mm"
   viewBox="0 0 146.21295 92.93554"
   version="1.1"
   id="svg1"
   xml:space="preserve"
   inkscape:export-filename="mzi.svg"
   inkscape:export-xdpi="96"
   inkscape:export-ydpi="96"
   inkscape:version="1.3 (0e150ed6c4, 2023-07-21)"
   sodipodi:docname="mzi.svg"
   xmlns:inkscape="http://www.inkscape.org/namespaces/inkscape"
   xmlns:sodipodi="http://sodipodi.sourceforge.net/DTD/sodipodi-0.dtd"
   xmlns="http://www.w3.org/2000/svg"
   xmlns:svg="http://www.w3.org/2000/svg"><sodipodi:namedview
     id="namedview1"
     pagecolor="#ffffff"
     bordercolor="#000000"
     borderopacity="0.25"
     inkscape:showpageshadow="2"
     inkscape:pageopacity="0.0"
     inkscape:pagecheckerboard="0"
     inkscape:deskcolor="#d1d1d1"
     inkscape:document-units="mm"
     inkscape:zoom="0.97890839"
     inkscape:cx="14.812418"
     inkscape:cy="-12.769326"
     inkscape:window-width="1920"
     inkscape:window-height="991"
     inkscape:window-x="-9"
     inkscape:window-y="-9"
     inkscape:window-maximized="1"
     inkscape:current-layer="layer1" /><defs
     id="defs1" /><g
     inkscape:label="Layer 1"
     inkscape:groupmode="layer"
     id="layer1"
     transform="translate(-80.54465,-31.893519)"><path
       style="fill:#000000;stroke-width:0.592157"
       d="m 186.05664,56.85625 c 0,-0.196561 -0.97831,-0.235252 -6.93287,-0.274181 l -6.93286,-0.0453 -1.31494,-0.529205 c -1.69331,-0.68149 -2.78278,-1.336908 -4.46257,-2.684658 -2.4045,-1.929214 -3.86967,-2.752538 -5.99373,-3.368068 -0.7537,-0.218411 -1.39788,-0.42463 -1.43151,-0.458259 -0.0336,-0.03363 0.34984,-0.14477 0.85217,-0.246983 1.96708,-0.400245 4.17182,-1.601756 6.86695,-3.742263 2.4572,-1.951538 5.19704,-3.141567 7.24622,-3.147335 l 0.82254,-0.0024 v 1.328754 c 0,1.248606 0.0213,1.333823 0.35252,1.412817 0.19389,0.04625 1.7626,0.0652 3.48602,0.04216 l 3.1335,-0.04192 0.0455,-1.292567 0.0455,-1.292574 h 2.10878 c 1.77002,0 2.10878,-0.03772 2.10878,-0.235009 0,-0.19726 -0.33879,-0.235016 -2.10901,-0.235016 h -2.10902 l -0.0452,-1.370903 -0.0452,-1.37091 h -3.44685 -3.44685 l -0.0452,1.272789 -0.0452,1.272789 -1.20822,0.07695 c -2.48964,0.158574 -4.50142,1.142432 -7.99032,3.907653 -1.53644,1.217749 -2.96104,2.027252 -4.65516,2.645221 -1.29569,0.472631 -1.5626,0.514757 -3.29018,0.519316 -1.73344,0.0047 -1.98554,-0.03405 -3.23178,-0.494789 -2.06961,-0.76518 -2.85376,-1.243726 -5.85476,-3.572989 -2.26132,-1.755161 -5.24459,-3.041801 -7.05286,-3.041801 h -0.85984 v -1.413071 -1.413071 l -3.48602,0.04216 -3.48602,0.04216 -0.0453,1.37091 -0.0452,1.370903 h -0.66292 c -2.07922,0 -5.11578,1.45184 -8.02544,3.837122 -1.4954,1.225896 -3.00852,2.08681 -4.77349,2.71596 -2.81113,1.002072 -5.06351,0.837749 -8.06592,-0.588439 -1.20733,-0.573505 -1.9027,-1.039503 -4.54091,-3.043086 -1.67992,-1.275809 -2.82852,-1.892428 -4.55566,-2.445681 l -1.48558,-0.475876 h -6.669872 c -5.266193,0 -6.656158,0.04122 -6.604717,0.195845 0.05021,0.150935 1.643024,0.21574 6.945924,0.282619 4.879034,0.06153 7.053065,0.143817 7.473005,0.282844 1.76221,0.583405 3.98123,1.851919 5.45518,3.118479 1.92251,1.652007 4.52106,3.070111 6.25158,3.411668 1.03801,0.204874 0.96183,0.323241 -0.48725,0.75702 -1.90024,0.56882 -3.04271,1.162671 -4.82816,2.50964 -0.81228,0.612794 -1.76408,1.329252 -2.11512,1.592122 -1.2534,0.938611 -2.55681,1.629783 -3.96001,2.099897 l -1.4247,0.477315 h -6.674744 c -5.82866,0 -6.674746,0.02979 -6.674746,0.235015 0,0.205112 0.824111,0.23501 6.476947,0.23501 5.867453,0 6.586203,-0.02819 7.637913,-0.29946 2.21592,-0.571586 3.60176,-1.32988 6.17455,-3.378525 0.77554,-0.617544 1.77499,-1.343079 2.22099,-1.612297 1.8947,-1.143681 4.36621,-1.916766 6.12782,-1.916766 2.32287,0 5.24462,1.238716 8.05167,3.413622 2.41175,1.86863 3.99261,2.794035 5.85114,3.425145 1.16796,0.396603 10.63313,0.505057 12.22326,0.140057 1.48558,-0.341006 3.6916,-1.446516 5.24596,-2.62893 3.5669,-2.713373 5.25907,-3.639981 7.51324,-4.114157 1.41714,-0.298104 2.22683,-0.297008 3.68897,0.0047 2.2378,0.462226 4.18859,1.480358 6.7285,3.511653 1.87441,1.499047 4.3965,2.847863 5.98943,3.203146 1.61103,0.359315 13.99149,0.379354 13.99149,0.02262 z m -55.49477,-0.713485 c -1.72611,-0.578301 -3.09104,-1.361488 -5.00697,-2.872958 -2.53512,-1.999941 -3.96081,-2.792538 -6.07893,-3.379496 -0.63116,-0.174906 -1.17531,-0.345755 -1.20923,-0.379674 -0.0339,-0.03393 0.41677,-0.18017 1.00154,-0.325006 1.77128,-0.438711 3.75771,-1.515929 6.22974,-3.378305 3.10221,-2.337145 5.48884,-3.449667 7.40038,-3.449667 h 0.67212 v 1.253402 1.253396 h 3.52518 3.52519 v -1.253396 -1.253402 h 0.7342 c 2.22199,0 4.81857,1.22396 7.96126,3.752739 1.9735,1.587971 3.95425,2.638944 5.77345,3.063331 0.50441,0.117674 0.94853,0.245366 0.98693,0.283768 0.0384,0.03843 -0.43537,0.193624 -1.05282,0.344943 -1.36187,0.33374 -3.82211,1.537709 -5.01971,2.456495 -3.43694,2.63677 -4.1863,3.107305 -6.01479,3.776756 -0.6032,0.22084 -1.23774,0.433371 -1.41008,0.472287 -0.17235,0.0389 -2.62957,0.07894 -5.46051,0.08893 l -5.14717,0.01818 z m 44.6842,-14.031633 v -2.41695 h 3.05516 3.05516 v 2.423333 2.423334 l -1.68425,0.04429 c -0.92635,0.02434 -2.30117,0.0215 -3.05516,-0.0064 l -1.37091,-0.05069 z M 134.04054,41.96597 v -2.428461 h 3.05516 3.05516 v 2.428461 2.428462 h -3.05516 -3.05516 z m 5.48363,1.34633 v -1.2e-5 z"
       id="path2"
       sodipodi:nodetypes="cscssssssccssccccssscccccccsssccsscccccccsssssscsssssssssscsssssssssssscssccssssssscccccccssssssssscscccccccscccccccccccccc"
       inkscape:export-filename=".\mzi.png"
       inkscape:export-xdpi="96"
       inkscape:export-ydpi="96" /></g></svg>
